<svg width="427" height="88" viewBox="0 0 427 88" fill="none" xmlns="http://www.w3.org/2000/svg">
<path d="M69.8717 0C65.2281 0 60.5864 1.76569 57.0552 5.29688L42.5982 19.7578L38.8209 15.9805L47.4146 7.40234C47.7036 7.12142 47.901 6.75974 47.9809 6.3647C48.0609 5.96966 48.0196 5.55969 47.8625 5.18852C47.7054 4.81735 47.4399 4.50229 47.1006 4.28463C46.7614 4.06697 46.3644 3.95687 45.9615 3.96875C45.4419 3.98423 44.9487 4.20139 44.5865 4.57422L22.0435 27.0742C16.2402 32.8776 13.6089 40.6556 14.0982 48.2578L9.46149 52.8945C9.19411 53.0679 8.97202 53.3026 8.8137 53.5791C8.65539 53.8557 8.56543 54.166 8.55133 54.4844L0.0708641 85.4609C-0.0222296 85.8013 -0.0236249 86.1602 0.0668201 86.5013C0.157265 86.8424 0.336331 87.1535 0.585845 87.403C0.835359 87.6525 1.14644 87.8316 1.48752 87.922C1.8286 88.0125 2.18753 88.0111 2.5279 87.918L33.8443 79.3438C33.8744 79.3366 33.9044 79.3288 33.9342 79.3203C33.9368 79.319 33.9394 79.3177 33.942 79.3164C34.0014 79.2996 34.0601 79.28 34.1177 79.2578C34.1203 79.2578 34.123 79.2578 34.1256 79.2578C34.1282 79.2565 34.1308 79.2552 34.1334 79.2539C34.1919 79.2306 34.2492 79.2045 34.3052 79.1758C34.3559 79.1505 34.4054 79.1232 34.4537 79.0938C34.4628 79.0886 34.472 79.0834 34.481 79.0781C34.4915 79.0704 34.5019 79.0626 34.5123 79.0547C34.5565 79.0252 34.5995 78.9939 34.6412 78.9609C34.6942 78.9193 34.745 78.8749 34.7935 78.8281C34.8014 78.8204 34.8092 78.8126 34.817 78.8047L34.8677 78.7578C34.8743 78.75 34.8808 78.7422 34.8873 78.7344L39.7662 73.8555C47.3418 74.3197 55.0836 71.6852 60.8677 65.9023L83.4146 43.4023C83.7036 43.1214 83.901 42.7597 83.9809 42.3647C84.0609 41.9697 84.0196 41.5597 83.8625 41.1885C83.7054 40.8173 83.4399 40.5023 83.1006 40.2846C82.7614 40.067 82.3644 39.9569 81.9615 39.9688C81.4419 39.9842 80.9487 40.2014 80.5865 40.5742L71.9927 49.1523L68.231 45.3906L82.692 30.9336C89.7565 23.8713 89.7565 12.3591 82.692 5.29688C79.1608 1.76569 74.5152 0 69.8717 0ZM69.8717 3.97656C73.4831 3.97656 77.097 5.35818 79.8638 8.125C85.3994 13.6588 85.3994 22.5717 79.8638 28.1055L65.4029 42.5625L63.4927 40.6523C63.7938 40.2008 63.9667 39.6761 63.993 39.1341C64.0194 38.5921 63.8983 38.0531 63.6425 37.5744C63.3868 37.0958 63.006 36.6955 62.5408 36.4162C62.0755 36.1369 61.5432 35.989 61.0006 35.9883C60.407 35.9875 59.8265 36.1629 59.3326 36.4922L51.4927 28.6523C51.7938 28.2008 51.9666 27.6761 51.993 27.1341C52.0194 26.5921 51.8983 26.0531 51.6425 25.5744C51.3868 25.0958 51.006 24.6955 50.5408 24.4162C50.0755 24.1369 49.5432 23.989 49.0006 23.9883C48.407 23.9875 47.8265 24.1629 47.3326 24.4922L45.4263 22.5859L59.8834 8.125C62.6502 5.35818 66.2602 3.97656 69.8717 3.97656ZM65.0006 7.98828C64.2049 7.98828 63.4418 8.30435 62.8792 8.86696C62.3166 9.42957 62.0006 10.1926 62.0006 10.9883C62.0006 11.7839 62.3166 12.547 62.8792 13.1096C63.4418 13.6722 64.2049 13.9883 65.0006 13.9883C65.7962 13.9883 66.5593 13.6722 67.1219 13.1096C67.6845 12.547 68.0006 11.7839 68.0006 10.9883C68.0006 10.1926 67.6845 9.42957 67.1219 8.86696C66.5593 8.30435 65.7962 7.98828 65.0006 7.98828ZM75.0006 9.98828C74.2049 9.98828 73.4418 10.3044 72.8792 10.867C72.3166 11.4296 72.0006 12.1926 72.0006 12.9883C72.0006 13.7839 72.3166 14.547 72.8792 15.1096C73.4418 15.6722 74.2049 15.9883 75.0006 15.9883C75.7962 15.9883 76.5593 15.6722 77.1219 15.1096C77.6845 14.547 78.0006 13.7839 78.0006 12.9883C78.0006 12.1926 77.6845 11.4296 77.1219 10.867C76.5593 10.3044 75.7962 9.98828 75.0006 9.98828ZM57.0006 15.9883C56.2049 15.9883 55.4419 16.3044 54.8792 16.867C54.3166 17.4296 54.0006 18.1926 54.0006 18.9883C54.0006 19.7839 54.3166 20.547 54.8792 21.1096C55.4419 21.6722 56.2049 21.9883 57.0006 21.9883C57.7962 21.9883 58.5593 21.6722 59.1219 21.1096C59.6845 20.547 60.0006 19.7839 60.0006 18.9883C60.0006 18.1926 59.6845 17.4296 59.1219 16.867C58.5593 16.3044 57.7962 15.9883 57.0006 15.9883ZM67.0006 17.9883C66.2049 17.9883 65.4418 18.3044 64.8792 18.867C64.3166 19.4296 64.0006 20.1926 64.0006 20.9883C64.0006 21.7839 64.3166 22.547 64.8792 23.1096C65.4418 23.6722 66.2049 23.9883 67.0006 23.9883C67.7962 23.9883 68.5593 23.6722 69.1219 23.1096C69.6845 22.547 70.0006 21.7839 70.0006 20.9883C70.0006 20.1926 69.6845 19.4296 69.1219 18.867C68.5593 18.3044 67.7962 17.9883 67.0006 17.9883ZM35.9888 18.8047L39.7701 22.5859L36.5982 25.7578L32.8131 21.9727L35.9888 18.8047ZM77.0006 19.9883C76.2049 19.9883 75.4418 20.3044 74.8792 20.867C74.3166 21.4296 74.0006 22.1926 74.0006 22.9883C74.0006 23.7839 74.3166 24.547 74.8792 25.1096C75.4418 25.6722 76.2049 25.9883 77.0006 25.9883C77.7962 25.9883 78.5593 25.6722 79.1219 25.1096C79.6845 24.547 80.0006 23.7839 80.0006 22.9883C80.0006 22.1926 79.6845 21.4296 79.1219 20.867C78.5593 20.3044 77.7962 19.9883 77.0006 19.9883ZM29.9849 24.8008L33.7701 28.5859L18.1373 44.2188C18.6387 38.9947 20.8631 33.9109 24.8716 29.9023L29.9849 24.8008ZM42.5982 25.4141L62.5748 45.3906L59.4029 48.5625L55.6998 44.8594C55.5478 44.6285 55.3496 44.4317 55.1177 44.2812L43.649 32.8086C43.5216 32.6308 43.3659 32.4751 43.1881 32.3477L39.4263 28.5859L42.5982 25.4141ZM59.0006 25.9883C58.2049 25.9883 57.4419 26.3044 56.8792 26.867C56.3166 27.4296 56.0006 28.1926 56.0006 28.9883C56.0006 29.7839 56.3166 30.547 56.8792 31.1096C57.4419 31.6722 58.2049 31.9883 59.0006 31.9883C59.7962 31.9883 60.5593 31.6722 61.1219 31.1096C61.6845 30.547 62.0006 29.7839 62.0006 28.9883C62.0006 28.1926 61.6845 27.4296 61.1219 26.867C60.5593 26.3044 59.7962 25.9883 59.0006 25.9883ZM69.0006 27.9883C68.2049 27.9883 67.4418 28.3044 66.8792 28.867C66.3166 29.4296 66.0006 30.1926 66.0006 30.9883C66.0006 31.7839 66.3166 32.547 66.8792 33.1096C67.4418 33.6722 68.2049 33.9883 69.0006 33.9883C69.7962 33.9883 70.5593 33.6722 71.1219 33.1096C71.6845 32.547 72.0006 31.7839 72.0006 30.9883C72.0006 30.1926 71.6845 29.4296 71.1219 28.867C70.5593 28.3044 69.7962 27.9883 69.0006 27.9883ZM36.5982 31.4141L39.1724 33.9883L19.2818 53.8789C18.8935 53.8734 17.248 53.8585 14.6099 53.4023L17.4381 50.5703C17.5149 50.5055 17.5867 50.435 17.6529 50.3594L36.5982 31.4141ZM42.0006 36.8164L51.1724 45.9883L31.3638 65.7969C30.3954 65.6391 27.967 65.1266 25.4146 62.5742C22.8622 60.0218 22.3497 57.5934 22.192 56.625L42.0006 36.8164ZM65.4029 48.2188L69.1607 51.9766L65.9849 55.1445L62.231 51.3906L65.4029 48.2188ZM54.0006 48.8164L56.5748 51.3906L37.7896 70.1758C37.5894 70.3138 37.4159 70.4872 37.2779 70.6875C37.274 70.6927 37.2701 70.6979 37.2662 70.7031L34.481 73.4844C34.355 72.7236 34.2336 71.9446 34.1685 71.2305C34.0422 69.8443 34.0472 69.2529 34.0396 68.7773L54.0006 48.8164ZM59.4029 54.2188L63.1568 57.9727L58.0435 63.0742C54.0559 67.0619 49.006 69.2895 43.8131 69.8086L59.4029 54.2188ZM12.024 56.9531C15.4487 57.6897 17.4568 57.7218 18.3873 57.75C18.7162 59.4093 19.5127 62.3285 22.5865 65.4023C25.5541 68.37 28.3549 69.1965 30.0826 69.5625C30.1022 70.2195 30.0804 70.4563 30.1841 71.5938C30.3078 72.9499 30.5125 74.5015 30.8834 76.0078L12.8638 80.9414C11.6719 78.3757 9.61233 76.3139 7.04743 75.1211L12.024 56.9531ZM5.97321 79.0469C7.20698 79.7554 8.23422 80.7814 8.94196 82.0156L4.85602 83.1328L5.97321 79.0469Z" fill="#232323"/>
<path d="M105.846 39.2959C105.846 37.4092 106.112 35.7139 106.646 34.21C107.179 32.7061 107.903 31.3799 108.819 30.2314C109.749 29.083 110.836 28.1055 112.08 27.2988C113.338 26.4785 114.678 25.8154 116.1 25.3096C117.535 24.79 119.025 24.4141 120.57 24.1816C122.115 23.9355 123.646 23.8125 125.164 23.8125C126.682 23.8125 128.213 23.9355 129.758 24.1816C131.316 24.4141 132.807 24.79 134.229 25.3096C135.664 25.8154 137.004 26.4785 138.248 27.2988C139.506 28.1055 140.6 29.083 141.529 30.2314C142.459 31.3799 143.19 32.7061 143.724 34.21C144.257 35.7139 144.523 37.4092 144.523 39.2959C144.523 41.1279 144.271 42.7754 143.765 44.2383C143.272 45.6875 142.589 46.9795 141.714 48.1143C140.853 49.249 139.834 50.2266 138.658 51.0469C137.482 51.8672 136.211 52.5439 134.844 53.0771C134.871 53.5557 134.933 53.9932 135.028 54.3896C135.138 54.7861 135.309 55.1348 135.541 55.4355C135.787 55.7363 136.108 55.9688 136.505 56.1328C136.915 56.2969 137.441 56.3789 138.084 56.3789C138.275 56.3789 138.521 56.3721 138.822 56.3584C139.123 56.3447 139.438 56.3174 139.766 56.2764C140.107 56.249 140.449 56.208 140.791 56.1533C141.146 56.0986 141.468 56.0371 141.755 55.9688L141.037 62.2852C140.641 62.3672 140.224 62.4424 139.786 62.5107C139.362 62.5791 138.932 62.6338 138.494 62.6748C138.07 62.7158 137.66 62.7432 137.264 62.7568C136.867 62.7842 136.519 62.7979 136.218 62.7979C134.878 62.7979 133.716 62.5996 132.731 62.2031C131.747 61.8066 130.927 61.2461 130.271 60.5215C129.614 59.8105 129.115 58.9492 128.773 57.9375C128.445 56.9395 128.274 55.8389 128.261 54.6357C127.741 54.6904 127.222 54.7314 126.702 54.7588C126.196 54.7861 125.684 54.7998 125.164 54.7998C123.646 54.7998 122.115 54.6836 120.57 54.4512C119.025 54.2188 117.535 53.8496 116.1 53.3438C114.678 52.8379 113.338 52.1816 112.08 51.375C110.836 50.5684 109.749 49.5908 108.819 48.4424C107.903 47.2939 107.179 45.9678 106.646 44.4639C106.112 42.9463 105.846 41.2236 105.846 39.2959ZM119.237 46.0635C120.017 45.4346 120.96 44.9424 122.067 44.5869C123.175 44.2178 124.398 44.0332 125.738 44.0332C126.9 44.0332 127.926 44.1973 128.814 44.5254C129.717 44.8398 130.517 45.2568 131.214 45.7764C131.61 44.8604 131.918 43.8555 132.137 42.7617C132.355 41.668 132.465 40.5127 132.465 39.2959C132.465 37.6963 132.294 36.1992 131.952 34.8047C131.61 33.3965 131.118 32.1797 130.476 31.1543C129.847 30.1152 129.081 29.3018 128.179 28.7139C127.276 28.1123 126.271 27.8115 125.164 27.8115C124.098 27.8115 123.12 28.1123 122.231 28.7139C121.343 29.3018 120.577 30.1152 119.935 31.1543C119.292 32.1797 118.793 33.3965 118.438 34.8047C118.082 36.1992 117.904 37.6963 117.904 39.2959C117.904 40.5947 118.014 41.8115 118.232 42.9463C118.465 44.0811 118.8 45.1201 119.237 46.0635ZM120.96 48.6885C121.534 49.3037 122.17 49.7754 122.867 50.1035C123.578 50.4316 124.344 50.5957 125.164 50.5957C126.203 50.5957 127.167 50.3086 128.056 49.7344C127.782 48.9961 127.297 48.4355 126.6 48.0527C125.916 47.6699 125.171 47.4785 124.364 47.4785C123.749 47.4785 123.141 47.5811 122.539 47.7861C121.938 47.9775 121.411 48.2783 120.96 48.6885ZM151.599 36.917L146.041 31.9131L161.381 31.2979V42.8438C161.381 43.7188 161.463 44.5459 161.627 45.3252C161.791 46.1045 162.044 46.7881 162.386 47.376C162.741 47.9639 163.192 48.4287 163.739 48.7705C164.286 49.1123 164.942 49.2832 165.708 49.2832C166.474 49.2832 167.178 49.1191 167.82 48.791C168.463 48.4629 169.01 47.9844 169.461 47.3555C169.926 46.7129 170.288 45.9268 170.548 44.9971C170.808 44.0674 170.938 43.0078 170.938 41.8184V36.917L165.523 31.9131L180.72 31.2979V49.1396L186.093 53.7334L170.938 54.3486V49.7959C169.912 51.4092 168.593 52.6465 166.979 53.5078C165.38 54.3691 163.562 54.7998 161.524 54.7998C158.339 54.7998 155.885 53.8359 154.162 51.9082C152.453 49.9668 151.599 47.0889 151.599 43.2744V36.917ZM197.229 28.6729C196.49 28.6729 195.793 28.5361 195.137 28.2627C194.494 27.9756 193.934 27.5928 193.455 27.1143C192.977 26.6357 192.594 26.0752 192.307 25.4326C192.033 24.7764 191.896 24.0791 191.896 23.3408C191.896 22.6025 192.033 21.9121 192.307 21.2695C192.594 20.6133 192.977 20.0459 193.455 19.5674C193.934 19.0752 194.494 18.6924 195.137 18.4189C195.793 18.1318 196.49 17.9883 197.229 17.9883C197.967 17.9883 198.657 18.1318 199.3 18.4189C199.956 18.6924 200.523 19.0752 201.002 19.5674C201.494 20.0459 201.877 20.6133 202.15 21.2695C202.438 21.9121 202.581 22.6025 202.581 23.3408C202.581 24.0791 202.438 24.7764 202.15 25.4326C201.877 26.0752 201.494 26.6357 201.002 27.1143C200.523 27.5928 199.956 27.9756 199.3 28.2627C198.657 28.5361 197.967 28.6729 197.229 28.6729ZM192.901 48.9961V36.5068L187.528 31.9131L202.479 31.2979V48.9961L208.036 54H187.344L192.901 48.9961ZM224.812 35.6865H216.854L211.851 42.208V31.2979H240.541L225.652 49.6113H235.291L240.356 42.6797V54H209.615L224.812 35.6865ZM257.316 39.8701C257.316 38.0928 257.569 36.459 258.075 34.9688C258.581 33.4785 259.285 32.1387 260.188 30.9492C261.09 29.7598 262.163 28.7207 263.407 27.832C264.665 26.9434 266.039 26.1982 267.529 25.5967C269.033 24.9951 270.626 24.5508 272.308 24.2637C273.989 23.9629 275.719 23.8125 277.496 23.8125C278.562 23.8125 279.629 23.8809 280.695 24.0176C281.775 24.1543 282.821 24.3457 283.833 24.5918C284.845 24.8379 285.809 25.1318 286.725 25.4736C287.654 25.8154 288.509 26.1914 289.288 26.6016L290.847 24.5918H295.44V34.5996H290.231C289.657 33.5742 288.96 32.665 288.14 31.8721C287.333 31.0791 286.438 30.4092 285.453 29.8623C284.482 29.3154 283.443 28.9053 282.336 28.6318C281.242 28.3447 280.114 28.2012 278.952 28.2012C277.681 28.2012 276.471 28.4199 275.322 28.8574C274.174 29.2949 273.169 29.9648 272.308 30.8672C271.446 31.7695 270.763 32.918 270.257 34.3125C269.751 35.6934 269.498 37.334 269.498 39.2344C269.498 41.0527 269.771 42.6592 270.318 44.0537C270.879 45.4346 271.624 46.5967 272.554 47.54C273.483 48.4697 274.563 49.1738 275.794 49.6523C277.038 50.1309 278.344 50.3701 279.711 50.3701C280.914 50.3701 281.953 50.2881 282.828 50.124C283.703 49.9463 284.496 49.6387 285.207 49.2012V44.0742L279.239 38.332H295.707V54H290.847L289.719 51.9492C288.912 52.4688 288.051 52.9131 287.135 53.2822C286.219 53.6377 285.262 53.9248 284.264 54.1436C283.266 54.376 282.24 54.54 281.188 54.6357C280.135 54.7451 279.068 54.7998 277.988 54.7998C276.143 54.7998 274.345 54.6904 272.595 54.4717C270.858 54.2529 269.225 53.9043 267.693 53.4258C266.162 52.9336 264.761 52.3047 263.489 51.5391C262.218 50.7598 261.124 49.8232 260.208 48.7295C259.292 47.6221 258.581 46.3369 258.075 44.874C257.569 43.4111 257.316 41.7432 257.316 39.8701ZM301.572 48.709C301.572 47.6152 301.798 46.6719 302.249 45.8789C302.7 45.0723 303.309 44.3887 304.074 43.8281C304.84 43.2539 305.735 42.7891 306.761 42.4336C307.786 42.0781 308.873 41.8047 310.021 41.6133C311.17 41.4082 312.346 41.2715 313.549 41.2031C314.766 41.1211 315.948 41.0801 317.097 41.0801C317.739 41.0801 318.416 41.0938 319.127 41.1211C319.852 41.1348 320.576 41.1553 321.301 41.1826C321.273 40.1982 321.185 39.3232 321.034 38.5576C320.897 37.7783 320.658 37.1289 320.316 36.6094C319.988 36.0762 319.523 35.6729 318.922 35.3994C318.334 35.1123 317.575 34.9688 316.646 34.9688C316.044 34.9688 315.449 35.0439 314.861 35.1943C314.273 35.3447 313.74 35.584 313.262 35.9121C312.783 36.2402 312.373 36.6641 312.031 37.1836C311.703 37.6895 311.491 38.3115 311.396 39.0498L303.172 37.9219C303.172 36.9922 303.356 36.165 303.726 35.4404C304.108 34.7021 304.628 34.0596 305.284 33.5127C305.94 32.9521 306.713 32.4805 307.602 32.0977C308.504 31.7148 309.468 31.4072 310.493 31.1748C311.532 30.9424 312.612 30.7715 313.733 30.6621C314.868 30.5527 315.996 30.498 317.117 30.498C318.471 30.498 319.763 30.5596 320.993 30.6826C322.237 30.792 323.393 30.9971 324.459 31.2979C325.525 31.5986 326.489 32.002 327.351 32.5078C328.226 33.0137 328.971 33.6562 329.586 34.4355C330.201 35.2148 330.673 36.1445 331.001 37.2246C331.343 38.3047 331.514 39.5625 331.514 40.998V48.2168C331.514 49.3105 331.78 50.0762 332.313 50.5137C332.86 50.9512 333.599 51.1699 334.528 51.1699V53.5283C334.405 53.6514 334.193 53.7881 333.893 53.9385C333.605 54.0752 333.223 54.2051 332.744 54.3281C332.279 54.4648 331.726 54.5742 331.083 54.6562C330.44 54.752 329.702 54.7998 328.868 54.7998C327.856 54.7998 326.947 54.7451 326.141 54.6357C325.334 54.54 324.63 54.3623 324.028 54.1025C323.44 53.8564 322.948 53.5146 322.552 53.0771C322.155 52.6396 321.854 52.0859 321.649 51.416C320.966 52.0176 320.193 52.5303 319.332 52.9541C318.471 53.3779 317.555 53.7266 316.584 54C315.627 54.2734 314.636 54.4717 313.61 54.5947C312.599 54.7314 311.601 54.7998 310.616 54.7998C309.96 54.7998 309.283 54.7656 308.586 54.6973C307.889 54.6289 307.205 54.5059 306.535 54.3281C305.865 54.1641 305.229 53.9385 304.628 53.6514C304.026 53.3506 303.5 52.9746 303.049 52.5234C302.598 52.0723 302.235 51.5322 301.962 50.9033C301.702 50.2744 301.572 49.543 301.572 48.709ZM312.175 47.8066C312.175 48.1758 312.271 48.5107 312.462 48.8115C312.653 49.1123 312.913 49.3652 313.241 49.5703C313.569 49.7754 313.952 49.9326 314.39 50.042C314.827 50.1514 315.292 50.2061 315.784 50.2061C316.29 50.2061 316.851 50.1514 317.466 50.042C318.081 49.9189 318.662 49.7207 319.209 49.4473C319.77 49.1738 320.248 48.8184 320.645 48.3809C321.041 47.9297 321.267 47.3828 321.321 46.7402V44.6484C321.13 44.6348 320.945 44.6279 320.768 44.6279C320.604 44.6279 320.446 44.6279 320.296 44.6279C318.833 44.6279 317.589 44.7031 316.563 44.8535C315.538 44.9902 314.697 45.1953 314.041 45.4688C313.398 45.7422 312.927 46.0771 312.626 46.4736C312.325 46.8701 312.175 47.3145 312.175 47.8066ZM342.198 48.9961V36.5068L336.825 31.9131L351.57 31.2979V35.5225C352.596 33.9092 353.908 32.6719 355.508 31.8105C357.121 30.9355 358.946 30.498 360.983 30.498C363.253 30.498 365.064 30.9902 366.418 31.9746C367.785 32.9453 368.77 34.4082 369.371 36.3633C370.355 34.4902 371.702 33.0479 373.411 32.0361C375.12 31.0107 377.075 30.498 379.276 30.498C380.862 30.498 382.216 30.7441 383.337 31.2363C384.472 31.7148 385.395 32.4395 386.105 33.4102C386.83 34.3672 387.356 35.5703 387.685 37.0195C388.013 38.4551 388.177 40.123 388.177 42.0234V49.0781L388.197 48.9961L393.345 54H375.257L378.805 49.0371V42.4541C378.805 41.5791 378.757 40.752 378.661 39.9727C378.565 39.1934 378.381 38.5098 378.107 37.9219C377.834 37.334 377.451 36.8691 376.959 36.5273C376.48 36.1855 375.858 36.0146 375.093 36.0146C373.821 36.0146 372.741 36.4521 371.853 37.3271C370.964 38.2021 370.369 39.46 370.068 41.1006C370.068 41.251 370.068 41.4082 370.068 41.5723C370.082 41.7227 370.089 41.873 370.089 42.0234V48.9961L373.862 54H356.738L360.512 48.9961V42.4541C360.512 41.5791 360.464 40.752 360.368 39.9727C360.272 39.1934 360.088 38.5098 359.814 37.9219C359.541 37.334 359.158 36.8691 358.666 36.5273C358.188 36.1855 357.565 36.0146 356.8 36.0146C356.034 36.0146 355.33 36.1855 354.688 36.5273C354.045 36.8555 353.491 37.3408 353.026 37.9834C352.562 38.6123 352.199 39.3916 351.939 40.3213C351.693 41.2373 351.57 42.29 351.57 43.4795V48.9961L355.344 54H336.641L342.198 48.9961ZM395.457 42.9873C395.457 41.3193 395.696 39.8496 396.175 38.5781C396.667 37.3066 397.323 36.2129 398.144 35.2969C398.978 34.3672 399.941 33.5947 401.035 32.9795C402.143 32.3643 403.318 31.8721 404.562 31.5029C405.807 31.1338 407.085 30.874 408.397 30.7236C409.724 30.5732 411.009 30.498 412.253 30.498C414.235 30.498 416.081 30.7168 417.79 31.1543C419.513 31.5918 421.003 32.2959 422.261 33.2666C423.519 34.2373 424.503 35.5156 425.214 37.1016C425.938 38.6738 426.301 40.5947 426.301 42.8643H406.265C406.319 44.2861 406.559 45.4619 406.982 46.3916C407.42 47.3076 407.98 48.0391 408.664 48.5859C409.348 49.1191 410.127 49.4951 411.002 49.7139C411.877 49.9326 412.779 50.042 413.709 50.042C414.543 50.042 415.445 49.9941 416.416 49.8984C417.387 49.8027 418.357 49.625 419.328 49.3652C420.299 49.0918 421.229 48.7227 422.117 48.2578C423.006 47.793 423.778 47.1846 424.435 46.4326L426.526 48.0732C426.185 48.9072 425.706 49.6523 425.091 50.3086C424.476 50.9648 423.771 51.5459 422.979 52.0518C422.186 52.5439 421.324 52.9678 420.395 53.3232C419.479 53.665 418.535 53.9453 417.564 54.1641C416.594 54.3828 415.623 54.54 414.652 54.6357C413.682 54.7451 412.752 54.7998 411.863 54.7998C409.361 54.7998 407.099 54.54 405.075 54.0205C403.065 53.501 401.343 52.7422 399.907 51.7441C398.485 50.7324 397.385 49.4951 396.605 48.0322C395.84 46.5557 395.457 44.874 395.457 42.9873ZM416.375 39.665C416.375 38.6533 416.279 37.8057 416.088 37.1221C415.91 36.4248 415.637 35.8643 415.268 35.4404C414.898 35.0166 414.434 34.7158 413.873 34.5381C413.326 34.3467 412.684 34.251 411.945 34.251C410.387 34.251 409.149 34.7227 408.233 35.666C407.317 36.6094 406.716 37.9424 406.429 39.665H416.375Z" fill="#232323"/>
</svg>
